HIERARCHY
ROOT root
{
	OFFSET 0.000000 0.000000 0.000000
	CHANNELS 6 Xposition Yposition Zposition Zrotation Yrotation Xrotation
	JOINT lhip
	{
		OFFSET 0.058581 -0.082280 -0.017664
		CHANNELS 3 Zrotation Yrotation Xrotation
		JOINT lknee
		{
			OFFSET 0.043451 -0.386469 0.008037
			CHANNELS 3 Zrotation Yrotation Xrotation
			JOINT lankle
			{
				OFFSET -0.014790 -0.426874 -0.037428
				CHANNELS 3 Zrotation Yrotation Xrotation
				JOINT ltoe
				{
					OFFSET 0.041054 -0.060286 0.122042
					CHANNELS 3 Zrotation Yrotation Xrotation
					End Site
					{
						OFFSET 0.000000 0.000000 0.000000
					}
				}
			}
		}
	}
	JOINT rhip
	{
		OFFSET -0.060310 -0.090513 -0.013543
		CHANNELS 3 Zrotation Yrotation Xrotation
		JOINT rknee
		{
			OFFSET -0.043257 -0.383688 -0.004843
			CHANNELS 3 Zrotation Yrotation Xrotation
			JOINT rankle
			{
				OFFSET 0.019056 -0.420046 -0.034562
				CHANNELS 3 Zrotation Yrotation Xrotation
				JOINT rtoe
				{
					OFFSET -0.034840 -0.062106 0.130323
					CHANNELS 3 Zrotation Yrotation Xrotation
					End Site
					{
						OFFSET 0.000000 0.000000 0.000000
					}
				}
			}
		}
	}
	JOINT lowerback
	{
		OFFSET 0.004439 0.124404 -0.038385
		CHANNELS 3 Zrotation Yrotation Xrotation
		JOINT upperback
		{
			OFFSET 0.004488 0.137956 0.026820
			CHANNELS 3 Zrotation Yrotation Xrotation
			JOINT chest
			{
				OFFSET -0.002265 0.056032 0.002855
				CHANNELS 3 Zrotation Yrotation Xrotation
				JOINT lowerneck
				{
					OFFSET -0.013390 0.211636 -0.033468
					CHANNELS 3 Zrotation Yrotation Xrotation
					JOINT upperneck
					{
						OFFSET 0.010113 0.088937 0.050410
						CHANNELS 3 Zrotation Yrotation Xrotation
						End Site
						{
							OFFSET 0.000000 0.000000 0.000000
						}
					}
				}
				JOINT lclavicle
				{
					OFFSET 0.071702 0.114000 -0.018898
					CHANNELS 3 Zrotation Yrotation Xrotation
					JOINT lshoulder
					{
						OFFSET 0.122921 0.045205 -0.019046
						CHANNELS 3 Zrotation Yrotation Xrotation
						JOINT lelbow
						{
							OFFSET 0.255332 -0.015649 -0.022946
							CHANNELS 3 Zrotation Yrotation Xrotation
							JOINT lwrist
							{
								OFFSET 0.265709 0.012698 -0.007375
								CHANNELS 3 Zrotation Yrotation Xrotation
								End Site
								{
									OFFSET 0.000000 0.000000 0.000000
								}
							}
						}
					}
				}
				JOINT rclavicle
				{
					OFFSET -0.082954 0.112472 -0.023707
					CHANNELS 3 Zrotation Yrotation Xrotation
					JOINT rshoulder
					{
						OFFSET -0.113228 0.046853 -0.008472
						CHANNELS 3 Zrotation Yrotation Xrotation
						JOINT relbow
						{
							OFFSET -0.260127 -0.014369 -0.031269
							CHANNELS 3 Zrotation Yrotation Xrotation
							JOINT rwrist
							{
								OFFSET -0.269108 0.006794 -0.006027
								CHANNELS 3 Zrotation Yrotation Xrotation
								End Site
								{
									OFFSET 0.000000 0.000000 0.000000
								}
							}
						}
					}
				}
			}
		}
	}
}
MOTION
Frames: 10
Frame Time: 0.033333
0.315275 -0.233830 0.969675 176.365711 -1.063112 89.871806 7.737174 0.894257 -11.222795 -8.260213 -6.377015 17.491087 1.970550 7.941798 -10.632799 0.000000 -0.000000 0.000000 -9.887450 -4.606096 -17.017530 1.788938 0.793583 23.593213 5.217113 -5.065324 -6.970771 0.000000 -0.000000 0.000000 1.718006 0.617871 20.325570 0.516658 -2.891675 3.211780 0.182740 0.677169 1.519149 1.436401 11.576635 21.156489 6.949940 11.335246 23.599948 -24.087204 -19.242201 5.246420 -62.153502 -18.278238 25.442049 -11.454206 -44.830328 7.593840 26.372665 18.968781 -42.637025 21.081809 18.619794 5.903981 62.182191 18.016115 26.862605 2.984264 43.909139 0.099042 -13.273923 -9.297416 -37.714182 
0.314764 -0.233916 0.969821 176.165966 -1.126518 89.869004 7.638785 0.890455 -11.160238 -8.186623 -6.176806 17.438791 2.089139 7.908377 -10.613002 0.000000 -0.000000 0.000000 -9.956545 -4.563936 -17.018417 1.746352 0.814396 23.471633 5.177295 -4.989077 -6.805269 0.000000 -0.000000 0.000000 1.582960 0.758144 20.250121 0.527805 -2.875522 3.227928 0.194015 0.770784 1.569493 1.026805 10.993216 20.963273 6.609592 10.595150 23.554505 -24.002961 -19.394703 5.387062 -62.236140 -18.421024 25.494608 -11.153864 -44.762894 7.230801 26.689627 19.122532 -42.001817 21.167715 18.566564 5.706315 62.285059 17.820398 26.850363 2.731712 43.831086 0.135279 -13.080772 -9.208130 -37.450361 
0.314404 -0.233697 0.969985 176.013873 -1.139505 89.967029 7.588941 0.859976 -11.165604 -8.121949 -6.066430 17.323883 2.125907 7.962507 -10.587964 0.000000 -0.000000 0.000000 -9.986719 -4.534886 -17.102562 1.722924 0.782387 23.378005 5.171670 -4.952370 -6.734746 0.000000 -0.000000 0.000000 1.468654 0.794957 20.123333 0.593779 -2.854717 3.092094 0.181737 0.752242 1.601905 0.686490 10.469878 20.860225 6.272380 9.791789 23.617093 -23.972332 -19.264969 5.432421 -62.291448 -18.460229 25.523574 -11.122148 -44.639500 7.268538 26.407124 18.876243 -42.121975 21.198632 18.534419 5.766124 62.386515 17.826358 26.828212 2.642310 43.704705 0.120600 -12.729326 -8.995246 -37.511144 
0.314087 -0.233552 0.970586 175.908005 -1.076807 89.900590 7.583302 0.937201 -11.010242 -8.060130 -6.074715 17.253776 2.149879 7.953487 -10.603367 0.000000 -0.000000 0.000000 -9.948254 -4.500330 -16.817612 1.799172 0.827262 23.008027 5.458828 -4.897614 -6.581665 0.000000 -0.000000 0.000000 1.558144 0.687059 20.169154 0.546622 -2.907142 3.132999 0.102482 0.719230 1.557496 0.245491 9.847537 20.687519 5.815426 9.023527 23.654036 -23.963487 -19.181861 5.363781 -62.227102 -18.457518 25.497014 -11.114664 -44.608142 7.224638 26.700078 19.027981 -41.658012 21.334648 18.754619 5.757669 62.311689 17.888920 26.825406 2.760338 43.511541 -0.230043 -13.265367 -8.934177 -37.150992 
0.313885 -0.233503 0.970756 175.892694 -1.062992 89.919423 7.571158 0.945126 -11.029327 -8.031408 -6.045400 17.254147 2.142899 7.946111 -10.560644 0.000000 -0.000000 0.000000 -9.961202 -4.535601 -16.765689 1.801890 0.785237 22.862264 5.429622 -4.904732 -6.485139 0.000000 -0.000000 0.000000 1.582522 0.646238 20.176550 0.546905 -2.923108 3.073232 0.081741 0.658024 1.585436 0.100213 9.522068 20.610144 5.655551 8.745116 23.808629 -23.996481 -19.112893 5.382743 -62.260132 -18.562104 25.482848 -11.084365 -44.532115 7.052965 26.785110 18.832777 -41.774478 21.317616 18.790322 5.756210 62.305434 17.977954 26.860748 2.818654 43.406887 -0.290010 -13.121778 -8.758728 -37.207620 
0.313819 -0.233388 0.971014 175.815235 -0.994265 89.997508 7.657261 1.033565 -11.057472 -8.028068 -5.967751 17.191124 2.126357 7.888419 -10.462233 0.000000 -0.000000 0.000000 -9.853889 -4.544385 -16.785239 1.746750 0.754216 22.700789 5.359882 -4.841884 -6.404282 0.000000 -0.000000 0.000000 1.584090 0.588938 20.092677 0.572000 -2.937839 3.098332 0.080496 0.657093 1.584182 -0.161151 9.134835 20.547749 5.459570 8.237917 23.825023 -24.018662 -19.071650 5.360468 -62.360524 -18.657029 25.464459 -10.931436 -44.250470 6.979153 26.878623 18.727928 -41.504799 21.357787 18.856860 5.792816 62.256285 18.104267 26.792417 2.912998 43.198017 -0.109788 -13.169682 -8.645405 -37.058004 
0.313752 -0.233454 0.971276 175.767878 -0.945863 90.095766 7.743236 1.032582 -11.135270 -8.056184 -5.869234 17.137544 2.036906 7.857393 -10.362199 0.000000 -0.000000 0.000000 -9.798277 -4.570419 -16.859866 1.746462 0.730295 22.613261 5.420660 -4.814924 -6.249197 0.000000 -0.000000 0.000000 1.570299 0.585411 20.036739 0.632274 -2.957994 3.204015 0.108342 0.669283 1.474580 -0.336464 8.764401 20.434207 5.407270 7.839609 23.842147 -24.019058 -19.139846 5.387198 -62.428198 -18.666806 25.480223 -10.747043 -44.135034 7.028305 26.609058 18.561083 -41.503860 21.217193 18.982515 5.824922 62.315428 18.113120 26.677995 2.701426 43.037450 -0.078671 -12.514285 -8.517488 -37.151359 
0.313545 -0.233317 0.971377 175.731861 -0.977347 90.136580 7.706336 1.040257 -11.145860 -8.045466 -5.782692 17.104818 2.070287 7.777745 -10.356452 0.000000 -0.000000 0.000000 -9.859267 -4.648270 -16.890312 1.775570 0.727015 22.579037 5.453037 -4.732921 -6.191987 0.000000 -0.000000 0.000000 1.595026 0.603644 20.094540 0.580098 -2.989653 3.159800 0.054011 0.622691 1.441541 -0.365477 8.664842 20.340972 5.420221 7.704681 23.950786 -24.016401 -19.128287 5.413588 -62.497434 -18.730716 25.448100 -10.671946 -44.073612 6.837440 26.782932 18.357602 -41.449736 21.261783 19.027781 5.857958 62.323358 18.113433 26.682499 2.539932 42.985552 -0.218016 -12.360427 -8.349058 -37.026306 
0.313419 -0.233354 0.971495 175.730018 -0.990336 90.216340 7.674917 1.046652 -11.165137 -8.012181 -5.736567 16.959024 2.023508 7.778531 -10.205444 0.000000 -0.000000 0.000000 -9.888878 -4.676194 -16.903404 1.787116 0.669950 22.440180 5.462128 -4.727519 -6.052104 0.000000 -0.000000 0.000000 1.639625 0.596419 20.067983 0.568041 -3.045662 3.214880 0.042418 0.565922 1.430708 -0.437908 8.565963 20.362235 5.348661 7.470102 23.801929 -23.975059 -19.181918 5.454778 -62.465244 -18.704925 25.503440 -10.528517 -44.274051 6.899194 26.412084 18.386345 -41.709020 21.232689 19.119360 5.861073 62.296151 18.168670 26.688631 2.514414 42.940785 -0.094964 -12.360043 -8.289567 -37.204892 
0.313395 -0.233299 0.971711 175.644365 -0.970574 90.296028 7.672610 1.108645 -11.111133 -7.943937 -5.721659 16.729751 2.031582 7.820080 -10.107660 0.000000 -0.000000 0.000000 -9.842983 -4.588592 -16.916933 1.759001 0.717806 22.282117 5.466758 -4.732227 -5.976209 0.000000 -0.000000 0.000000 1.658439 0.664278 20.004248 0.618890 -2.979793 3.201822 0.093524 0.516969 1.510582 -0.429502 8.427618 20.522729 5.310724 7.385229 23.713289 -24.090677 -19.202124 5.524182 -62.390589 -18.807382 25.498870 -10.619913 -44.328336 6.888398 26.705829 18.403276 -41.681839 21.198740 19.041435 5.838777 62.170629 18.198957 26.681754 2.648640 43.043232 0.048843 -12.949581 -8.549438 -37.003017 
